HIERARCHY
ROOT Hips
{
  OFFSET 0.000000 0.000000 0.000000
  CHANNELS 6 Xposition Yposition Zposition Xrotation Yrotation Zrotation
  JOINT Spine
  {
    OFFSET 0.211591 24.227834 -3.764787
    CHANNELS 3 Xrotation Yrotation Zrotation
    JOINT Chest
    {
      OFFSET 0.211591 24.227834 -3.764787
      CHANNELS 3 Xrotation Yrotation Zrotation
      JOINT Neck
      {
        OFFSET -1.100772 8.441563 -3.430650
        CHANNELS 3 Xrotation Yrotation Zrotation
        JOINT Head
        {
          OFFSET -1.192129 7.757112 -7.601908
          CHANNELS 3 Xrotation Yrotation Zrotation
          End Site
          {
            OFFSET -0.357639 2.327134 -2.280572
          }
        }
      }
      JOINT LeftShoulder
      {
        OFFSET 17.192089 0.613400 -1.554494
        CHANNELS 3 Xrotation Yrotation Zrotation
        JOINT LeftArm
        {
          OFFSET 6.822346 -20.001605 -11.416031
          CHANNELS 3 Xrotation Yrotation Zrotation
          JOINT LeftForeArm
          {
            OFFSET -10.811707 -3.287858 -20.004664
            CHANNELS 3 Xrotation Yrotation Zrotation
            JOINT LeftHand
            {
              OFFSET -2.972239 -0.032078 -2.791873
              CHANNELS 3 Xrotation Yrotation Zrotation
              End Site
              {
                OFFSET -0.891672 -0.009623 -0.837562
              }
            }
          }
        }
      }
      JOINT RightShoulder
      {
        OFFSET -17.192089 -0.613400 1.554494
        CHANNELS 3 Xrotation Yrotation Zrotation
        JOINT RightArm
        {
          OFFSET -7.078612 -20.128798 -9.457155
          CHANNELS 3 Xrotation Yrotation Zrotation
          JOINT RightForeArm
          {
            OFFSET 6.068787 -1.370308 -22.325569
            CHANNELS 3 Xrotation Yrotation Zrotation
            JOINT RightHand
            {
              OFFSET 2.627653 0.279547 -3.282648
              CHANNELS 3 Xrotation Yrotation Zrotation
              End Site
              {
                OFFSET 0.788296 0.083864 -0.984794
              }
            }
          }
        }
      }
    }
  }
  JOINT LeftUpLeg
  {
    OFFSET 11.367086 0.027478 -2.758015
    CHANNELS 3 Xrotation Yrotation Zrotation
    JOINT LeftLeg
    {
      OFFSET 2.451199 -39.057141 -4.768226
      CHANNELS 3 Xrotation Yrotation Zrotation
      JOINT LeftFoot
      {
        OFFSET 10.058204 -39.973237 0.774249
        CHANNELS 3 Xrotation Yrotation Zrotation
        End Site
        {
          OFFSET 3.017461 -11.991971 0.232275
        }
      }
    }
  }
  JOINT RightUpLeg
  {
    OFFSET -11.367086 -0.027478 2.758015
    CHANNELS 3 Xrotation Yrotation Zrotation
    JOINT RightLeg
    {
      OFFSET -4.668361 -37.080477 -5.635053
      CHANNELS 3 Xrotation Yrotation Zrotation
      JOINT RightFoot
      {
        OFFSET -2.542494 -41.040053 5.594103
        CHANNELS 3 Xrotation Yrotation Zrotation
        End Site
        {
          OFFSET -0.762748 -12.312016 1.678231
        }
      }
    }
  }
}
MOTION
Frames: 17
Frame Time: 0.083333
0.007068 59.993697 34.068531 -1.205293 -0.044639 -0.235813 0.000000 0.000000 0.000000 -0.037129 -1.372897 -2.736095 -0.665756 -2.087057 0.090699 5.000000 0.000000 0.000000 28.035056 -13.393491 33.973800 3.003746 11.014784 -31.878504 0.000000 0.000000 0.000000 0.000000 0.000000 0.000000 20.138967 -6.303412 5.991581 -9.976297 5.400390 0.364519 -26.736497 -23.326676 -10.510949 0.000000 0.000000 0.000000 23.572352 2.705190 3.808810 -20.722572 -0.120683 8.744360 0.000000 0.000000 0.000000 7.579280 0.068527 4.030252 -27.386153 2.391267 -1.075587 0.000000 0.000000 0.000000
0.005478 59.992960 39.079571 -2.439221 -0.519042 -3.002252 0.000000 0.000000 0.000000 2.692751 -1.076349 -1.533340 -0.812423 -3.263291 -0.096241 5.000000 0.000000 0.000000 25.185995 -8.450733 26.863087 6.390254 8.122002 -22.681076 0.000000 0.000000 0.000000 0.000000 0.000000 0.000000 19.878807 -10.702428 13.237214 -12.919046 9.597744 -4.749292 0.000000 0.000000 0.000000 0.000000 0.000000 0.000000 28.778861 4.007332 4.981583 -26.024548 -0.207335 8.405629 0.000000 0.000000 0.000000 10.623973 0.326516 5.502751 -36.477016 1.881062 -4.604254 0.000000 0.000000 0.000000
0.004164 59.995850 41.103928 -2.923229 -0.780750 -4.435576 0.000000 0.000000 0.000000 4.319961 -0.698260 -0.978543 -0.479861 -4.160758 -0.702314 5.000000 0.000000 0.000000 5.179416 0.485823 10.244968 28.980319 -5.797044 -9.601908 0.000000 0.000000 0.000000 0.000000 0.000000 0.000000 12.858173 -9.512032 16.082870 -2.460467 7.899157 -10.401200 0.000000 0.000000 0.000000 0.000000 0.000000 0.000000 27.374185 3.868438 4.609931 -27.765534 -0.597102 10.661022 0.000000 0.000000 0.000000 12.255948 0.095844 4.742826 -39.060281 2.306982 -2.496689 0.000000 0.000000 0.000000
0.002868 59.998136 40.387062 -1.789861 -0.713338 -4.232385 0.000000 0.000000 0.000000 2.180953 -1.000882 -0.544667 0.259002 -4.295315 -1.472548 5.000000 0.000000 0.000000 1.473104 6.662635 -4.498049 23.869760 -6.255011 6.440189 0.000000 0.000000 0.000000 0.000000 0.000000 0.000000 8.063064 -4.495644 8.253440 0.480713 4.041914 -4.473097 0.000000 0.000000 0.000000 0.000000 0.000000 0.000000 22.032000 3.134960 3.877709 -27.895561 -1.198108 12.265935 0.000000 0.000000 0.000000 11.070446 -0.022969 3.188899 -36.243756 2.624215 1.272970 0.000000 0.000000 0.000000
0.001901 59.998893 38.580423 -0.048652 -0.576044 -3.608218 0.000000 0.000000 0.000000 0.132643 -0.657435 0.494613 0.017837 -2.415745 -0.570555 5.000000 0.000000 0.000000 2.205894 5.744347 -7.251654 18.185250 -4.126408 7.105793 0.000000 0.000000 0.000000 0.000000 0.000000 0.000000 2.051181 0.504232 -1.169503 7.980383 0.650154 2.326550 0.000000 0.000000 0.000000 0.000000 0.000000 0.000000 15.470911 2.302437 1.358875 -24.936520 -1.987898 13.444414 0.000000 0.000000 0.000000 6.277514 -0.492349 2.003468 -29.682123 2.613111 1.748541 0.000000 0.000000 0.000000
0.002405 59.998482 37.348908 2.971618 -0.317770 -2.073728 0.000000 0.000000 0.000000 -3.098704 0.021743 1.565437 -0.412429 0.308117 0.729902 5.000000 0.000000 0.000000 4.773153 3.103063 -6.692316 19.358514 -2.364066 3.137224 -39.684099 12.305376 11.104705 0.000000 0.000000 0.000000 -2.620534 0.503921 -2.732728 15.228760 0.914729 1.421601 0.000000 0.000000 0.000000 0.000000 0.000000 0.000000 11.846640 1.592572 -4.037091 -18.776370 -2.565978 19.107723 0.000000 0.000000 0.000000 1.800129 -1.104785 -0.496420 -21.675659 2.516836 1.163211 0.000000 0.000000 0.000000
0.003427 59.997179 36.578387 4.788506 0.086277 1.215588 0.000000 0.000000 0.000000 -4.893439 0.939964 1.125607 0.003773 1.714669 0.438104 5.000000 0.000000 0.000000 11.294266 0.781488 -1.749743 15.923138 -1.640680 -3.797489 -47.486981 34.130992 20.351491 0.000000 0.000000 0.000000 -8.085516 -0.174279 0.743725 18.780371 1.253125 -3.525693 0.000000 0.000000 0.000000 0.000000 0.000000 0.000000 9.556941 0.837798 -7.935923 -14.953698 -2.490204 24.250138 0.000000 0.000000 0.000000 1.198463 -1.585688 -3.142265 -19.415959 2.709445 1.331104 0.000000 0.000000 0.000000
0.002772 59.995711 36.184893 5.409915 0.408067 4.264097 0.000000 0.000000 0.000000 -4.937629 1.507312 -0.456598 0.540331 2.561057 0.556066 5.000000 0.000000 0.000000 17.206242 2.670561 -2.407200 9.924672 -2.057183 -3.044894 -45.320207 35.767447 19.990085 0.000000 0.000000 0.000000 -9.468493 -0.337286 1.808490 21.030355 0.832535 -4.909335 0.000000 0.000000 0.000000 0.000000 0.000000 0.000000 9.489007 0.517713 -8.015871 -11.475332 -1.833225 25.138666 0.000000 0.000000 0.000000 0.423058 -1.572938 -3.285407 -17.015899 2.408599 -0.145999 0.000000 0.000000 0.000000
0.000762 59.994970 37.024020 5.189964 0.478081 4.818761 0.000000 0.000000 0.000000 -4.667909 1.635055 -0.566982 0.861308 2.795676 0.632038 5.000000 0.000000 0.000000 14.702531 2.936518 -1.968744 9.265045 -1.462137 -2.317289 0.000000 0.000000 0.000000 0.000000 0.000000 0.000000 -5.723215 -2.019515 3.944566 17.027523 2.007485 -6.471712 -61.598503 1.679557 -31.351013 0.000000 0.000000 0.000000 12.538404 -0.013064 -5.523359 -9.264181 -0.673642 20.608473 0.000000 0.000000 0.000000 1.451275 -1.572792 -2.114167 -16.730836 2.175994 -2.351449 0.000000 0.000000 0.000000
-0.000342 59.994645 39.164525 2.869095 0.506147 4.232701 0.000000 0.000000 0.000000 -2.561449 0.895494 -1.246737 0.751564 2.062618 0.578918 5.000000 0.000000 0.000000 7.474892 2.617428 -0.696250 11.358830 -0.319206 -0.793325 0.000000 0.000000 0.000000 0.000000 0.000000 0.000000 -1.780567 -0.178225 2.642251 8.769377 -0.347333 -2.707649 0.000000 0.000000 0.000000 0.000000 0.000000 0.000000 17.554889 0.143007 -1.040094 -13.918468 0.390470 13.233604 0.000000 0.000000 0.000000 4.499678 -1.497970 0.137425 -21.768367 1.990179 -5.023191 0.000000 0.000000 0.000000
-0.001831 59.995170 41.393232 0.878539 0.258366 2.253899 0.000000 0.000000 0.000000 -1.218293 -0.242865 -2.220512 0.245524 0.118108 0.274086 5.000000 0.000000 0.000000 1.082982 7.196061 -3.494892 23.024482 -3.904276 6.756930 0.000000 0.000000 0.000000 0.000000 0.000000 0.000000 5.057911 2.024315 0.479483 -3.145751 -5.448229 3.204309 0.000000 0.000000 0.000000 0.000000 0.000000 0.000000 26.692603 1.909693 3.857037 -19.887562 0.995230 8.845598 0.000000 0.000000 0.000000 8.704275 -0.791667 4.672666 -31.105465 0.804958 -10.503225 0.000000 0.000000 0.000000
-0.003335 59.997539 42.282928 -2.414264 -0.305356 -1.900815 0.000000 0.000000 0.000000 1.265387 -1.780971 -2.448000 0.173631 -2.822987 -0.184199 5.000000 0.000000 0.000000 3.488948 11.645295 -2.531415 31.169901 -6.348001 8.590989 0.000000 0.000000 0.000000 0.000000 0.000000 0.000000 16.378076 -13.216990 20.329126 -0.391555 2.396665 -14.993757 104.591369 -39.835128 54.255426 0.000000 0.000000 0.000000 28.917361 4.066448 7.677092 -26.706382 1.091135 5.776083 0.000000 0.000000 0.000000 9.759024 0.116940 8.204966 -40.365300 -1.488615 -15.745664 0.000000 0.000000 0.000000
-0.002179 60.000973 40.622267 -1.612821 -0.879995 -5.705675 0.000000 0.000000 0.000000 1.307521 -2.449934 -1.623134 1.183348 -4.340659 -0.405777 5.000000 0.000000 0.000000 5.743589 11.679644 -2.475043 34.456700 -7.410374 7.204410 0.000000 0.000000 0.000000 0.000000 0.000000 0.000000 24.505053 -40.011263 50.534480 22.605928 26.948426 -47.101454 0.000000 0.000000 0.000000 0.000000 0.000000 0.000000 24.120576 5.722110 10.932227 -26.088244 0.910205 3.970570 0.000000 0.000000 0.000000 7.886126 0.787073 11.350024 -42.490408 -2.692971 -17.350891 0.000000 0.000000 0.000000
0.002134 60.002996 35.803342 1.948343 -1.309518 -9.394745 0.000000 0.000000 0.000000 -1.886600 -1.791757 3.071051 1.471721 -4.592218 -1.470689 5.000000 0.000000 0.000000 5.409332 11.154570 -2.963216 28.470448 -7.963494 7.782147 0.000000 0.000000 0.000000 0.000000 0.000000 0.000000 25.499946 -30.652818 35.734907 15.610408 24.805640 -33.552969 0.000000 0.000000 0.000000 0.000000 0.000000 0.000000 19.205626 5.144964 11.029087 -21.980892 0.459231 3.561777 0.000000 0.000000 0.000000 6.352501 0.804632 11.167482 -33.327178 -1.045472 -13.423013 0.000000 0.000000 0.000000
0.005870 60.002981 28.943340 2.678167 -1.288194 -9.596356 0.000000 0.000000 0.000000 -2.605350 -1.664005 3.855589 0.922044 -4.297981 -1.205268 5.000000 0.000000 0.000000 2.866246 6.803483 -1.778040 20.796083 -7.288616 4.967196 0.000000 0.000000 0.000000 0.000000 0.000000 0.000000 19.070450 -14.805924 17.164349 6.731629 13.328102 -14.856268 0.000000 0.000000 0.000000 0.000000 0.000000 0.000000 14.895487 3.726437 8.917086 -22.730792 -0.531708 4.452134 0.000000 0.000000 0.000000 4.268985 0.459808 8.842647 -25.381873 1.365981 -3.515594 0.000000 0.000000 0.000000
0.009328 60.001595 21.656259 3.175782 -1.026484 -7.599398 0.000000 0.000000 0.000000 -3.229320 -1.106150 3.454217 -0.172089 -3.103487 -0.458930 5.000000 0.000000 0.000000 4.757423 3.447530 0.260079 17.151275 -5.370093 -0.014743 0.000000 0.000000 0.000000 0.000000 0.000000 0.000000 12.814410 3.319926 -8.734347 -0.823983 -2.631167 10.751788 0.000000 0.000000 0.000000 0.000000 0.000000 0.000000 6.777306 1.990993 6.016932 -19.362923 -0.976719 9.717192 0.000000 0.000000 0.000000 -1.952839 -0.253526 7.045248 -12.853822 3.068663 5.423193 0.000000 0.000000 0.000000
0.012325 60.000091 15.765928 6.554267 -0.591967 -5.207197 0.000000 0.000000 0.000000 -7.213058 -0.884220 3.413433 -0.779671 -0.418609 0.895238 5.000000 0.000000 0.000000 5.244879 2.250024 -4.162104 13.520637 -3.926119 1.155397 0.000000 0.000000 0.000000 0.000000 0.000000 0.000000 0.878252 2.526393 -7.599238 12.898487 -0.633057 6.952502 0.000000 0.000000 0.000000 0.000000 0.000000 0.000000 -0.260726 0.889411 1.924103 -10.900452 -0.521839 18.442891 0.000000 0.000000 0.000000 -10.906238 -0.260085 5.824817 -2.552421 1.558859 1.616715 0.000000 0.000000 0.000000
